<?xml version="1.0" encoding="utf-8"?>
<!-- Svg Vector Icons : http://www.onlinewebfonts.com/icon -->
<!DOCTYPE svg PUBLIC "-//W3C//DTD SVG 1.1//EN" "http://www.w3.org/Graphics/SVG/1.1/DTD/svg11.dtd">
<svg version="1.1" xmlns="http://www.w3.org/2000/svg" xmlns:xlink="http://www.w3.org/1999/xlink" x="0px" y="0px" viewBox="0 0 1000 1000" enable-background="new 0 0 1000 1000" xml:space="preserve">
<metadata> Svg Vector Icons : http://www.onlinewebfonts.com/icon </metadata>
<g><path d="M901.3,574.5"/><path d="M491.1,840.3c-192.6,0-349.3-163-349.3-363.3c0-200.3,156.7-363.3,349.3-363.3c192.6,0,349.3,163,349.3,363.3C840.4,677.4,683.7,840.3,491.1,840.3z M491.1,143.1c-176.5,0-320,149.8-320,334c0,184.2,143.6,334,320,334c176.5,0,320-149.8,320-334C811.1,292.9,667.5,143.1,491.1,143.1z"/><path d="M804.1,130.6c-54.7-39.7-119-49.8-164-30.5C590.2,33,423.2-29,290.1,40.5C148.8,114.2,89.5,235.1,99.8,345.9c4.4,46.6,34.2,131.1,51.7,131.1c25.7,0,2.7-116.6,46.6-120.9c51.7-5.1,144.7-10.8,194.8-40c0,0-28.4,12.8-28.3,12.8c12.1,27.3,51.4,58.9,91.8,64c77.2,9.8,113.7-37.9,113.7-37.9s-18,4.7-43.7-0.7c-23.2-4.9-35.3-10.2-52.5-28.4c-17.5-18.6-13.9-58-1.8-74.7c19.7-27.1,78.2-54.2,113.2-60.3c19.6,60.4,33.4,81.7,97.4,128c73.3,53.1,165,33.9,184.9,3.4C903.2,267.7,877.4,183.7,804.1,130.6z"/><path d="M663.3,893.8c0-33.5,40.5-85.8-11.9-85.8c-56.3,0-104.3,19.8-128.7,43.1c-9.4-10.7-23.2-17.5-38.6-17.5c-15.3,0-28.9,6.7-38.4,17.2c-25-22.5-71.9-41.3-126.7-41.3c-52.5,0,1.8,55,1.8,88.5s-76,91.8,5.8,91.8c56.7,0,101.3-34.3,123.3-66.5c9.1,8.1,21,12.9,34.1,12.9c14,0,26.7-5.6,35.9-14.7c21.9,33,66.7,68.6,123.7,66.6C742.7,984.9,663.3,927.3,663.3,893.8z"/></g>
</svg>