<?xml version="1.0" encoding="utf-8"?>
<!-- Svg Vector Icons : http://www.onlinewebfonts.com/icon -->
<!DOCTYPE svg PUBLIC "-//W3C//DTD SVG 1.1//EN" "http://www.w3.org/Graphics/SVG/1.1/DTD/svg11.dtd">
<svg version="1.1" xmlns="http://www.w3.org/2000/svg" xmlns:xlink="http://www.w3.org/1999/xlink" x="0px" y="0px" viewBox="0 0 1000 1000" enable-background="new 0 0 1000 1000" xml:space="preserve">
<metadata> Svg Vector Icons : http://www.onlinewebfonts.com/icon </metadata>
<g><g transform="translate(0.000000,256.000000) scale(0.100000,-0.100000)"><path d="M4385.7,2448.1c-53.8-7.7-241.9-34.6-422.3-57.6c-1132.6-153.6-1912-660.4-2319-1505.1c-103.7-211.2-199.7-483.8-238.1-679.6c-72.9-345.5-96-1086.6-42.2-1374.5l26.9-165.1l-111.3,61.4c-180.5,92.1-399.3,72.9-541.4-42.2c-249.6-215-276.5-387.8-153.6-1013.6c168.9-840.8,430-1459,748.7-1785.4c103.7-107.5,245.7-222.7,311-249.6c103.7-46.1,130.5-84.5,168.9-257.3c245.7-1113.4,1286.2-2180.8,2534-2607c622-211.2,1190.2-130.6,1950.4,284.1c959.9,529.9,1689.4,1420.6,1889,2322.9c38.4,172.8,65.3,211.2,168.9,257.3c65.3,26.9,207.3,142.1,311,249.6c318.7,326.4,579.8,944.5,748.7,1785.4c122.9,625.8,96,798.6-153.6,1013.6c-142.1,115.2-360.9,134.4-541.3,42.2l-111.4-61.4l26.9,165.1c53.8,288,30.7,1029-42.2,1374.5c-92.2,460.7-349.4,971.4-641.2,1282.4c-437.7,468.4-986.7,741-1812.2,890.8C5840.9,2436.6,4593,2482.7,4385.7,2448.1z M3875-70.6c207.3-69.1,303.3-126.7,495.3-318.7c245.7-241.9,460.7-622,560.6-986.7c23-103.7,57.6-184.3,69.1-184.3s46.1,80.6,69.1,184.3c99.9,364.7,314.8,744.9,564.4,990.6c199.7,195.8,280.3,245.7,510.6,322.5C6639.5,94.5,7115.6-1.5,7369-312.5c249.6-303.3,407-787.1,449.2-1382.2c49.9-687.3,61.4-748.7,138.2-748.7c65.3,0,430,107.5,583.6,172.8c57.6,23,53.8-11.5-26.9-322.5c-119-441.5-280.3-798.6-433.8-948.3c-96-96-161.3-126.7-349.4-145.9l-230.4-26.9l-23.1-218.9c-38.4-334-157.4-783.3-261.1-990.6c-364.7-718-1182.5-1370.7-1977.3-1570.3c-218.9-57.6-257.3-57.6-479.9,0c-790.9,199.7-1608.7,852.4-1973.5,1570.3c-103.7,207.3-222.7,656.5-261.1,990.6l-23,218.9l-230.4,26.9c-188.1,19.2-253.4,49.9-349.4,145.9c-153.6,149.7-314.8,506.8-433.9,948.3c-80.6,311-84.5,345.5-26.9,322.5c153.6-65.3,518.3-172.8,583.6-172.8c76.8,0,69.1-46.1,149.7,825.5c23,234.2,76.8,545.2,119,691.1c88.3,288,303.3,641.2,464.6,756.4C3041.9,29.2,3460.4,63.8,3875-70.6z"/><path d="M2542.7-2497.1c0-138.2,249.6-529.9,476.1-748.7c456.9-433.9,817.8-522.2,1205.6-288c199.7,122.8,364.8,387.8,345.6,552.9c-11.5,92.2-42.2,103.7-913.8,291.8c-495.3,111.3-948.4,211.2-1005.9,222.7C2577.3-2451.1,2542.7-2462.6,2542.7-2497.1z"/><path d="M6401.4-2666c-925.3-211.2-959.9-222.7-971.4-314.8c-19.2-165.1,188.1-437.7,422.3-552.9c518.3-253.4,952.2-126.7,1293.9,372.4c165.1,245.7,330.2,725.7,245.7,714.2C7372.8-2447.2,6931.2-2547,6401.4-2666z"/><path d="M3387.4-4505.2c0-15.3,518.3-349.4,687.3-441.5l119-65.2v-337.9l3.8-337.9l130.5,153.6c72.9,84.5,161.3,207.3,195.8,268.8l61.4,115.2H5000h414.6l61.5-115.2c34.5-61.4,122.9-184.3,195.8-268.8l130.6-153.6l3.8,337.9v337.9l119,65.2c168.9,92.2,687.2,426.2,687.2,441.5c0,7.7-107.5,0-238.1-19.2c-433.8-61.4-1363-88.3-1942.7-61.4c-311,15.4-671.9,42.2-802.5,61.4C3494.9-4505.2,3387.4-4497.5,3387.4-4505.2z"/></g></g>
</svg>